<?xml version="1.0" standalone="no"?>
<!DOCTYPE svg PUBLIC "-//W3C//DTD SVG 20010904//EN"
 "http://www.w3.org/TR/2001/REC-SVG-20010904/DTD/svg10.dtd">
<svg version="1.0" xmlns="http://www.w3.org/2000/svg"
 width="512.000000pt" height="512.000000pt" viewBox="0 0 512.000000 512.000000"
 preserveAspectRatio="xMidYMid meet">
<metadata>
Created by potrace 1.14, written by Peter Selinger 2001-2017
</metadata>
<g transform="translate(0.000000,512.000000) scale(0.100000,-0.100000)"
fill="#000000" stroke="none">
<path d="M2429 5116 c-2 -2 -26 -7 -54 -10 -189 -20 -418 -110 -623 -243 -176
-115 -386 -315 -533 -508 -332 -435 -578 -1030 -665 -1605 -3 -25 -8 -54 -10
-65 -3 -11 -7 -49 -10 -85 -3 -36 -9 -99 -13 -140 -9 -83 -6 -448 3 -525 36
-294 77 -470 160 -684 150 -387 412 -719 733 -927 32 -21 74 -47 93 -57 19
-11 53 -29 75 -41 183 -101 457 -182 715 -211 109 -13 506 -14 526 -3 5 3 34
9 64 12 238 27 538 131 745 257 467 284 778 739 909 1332 26 119 31 147 41
242 4 33 9 71 11 85 12 58 10 436 -2 569 -89 975 -556 1887 -1195 2334 -170
118 -413 224 -579 252 -25 4 -54 9 -65 12 -25 6 -321 14 -326 9z m315 -181
c109 -23 166 -39 224 -61 546 -205 1021 -790 1290 -1589 59 -173 128 -470 147
-625 3 -25 8 -64 11 -87 28 -208 25 -529 -7 -743 -16 -114 -20 -133 -45 -235
-128 -512 -403 -908 -801 -1153 -192 -119 -465 -218 -683 -248 -125 -17 -204
-22 -350 -19 -152 3 -191 6 -290 20 -499 72 -935 346 -1210 762 -138 209 -257
505 -295 733 -3 19 -8 42 -10 50 -6 21 -23 141 -31 230 -14 139 -6 562 10 611
3 8 8 39 11 69 16 157 82 442 150 645 250 747 710 1334 1217 1551 96 41 239
82 318 90 30 4 57 8 59 10 7 6 252 -3 285 -11z"/>
<path d="M2377 4759 c-241 -49 -449 -167 -683 -392 -68 -65 -83 -101 -59 -147
16 -31 58 -50 92 -41 12 3 52 35 90 71 236 224 453 334 702 356 107 10 150 57
114 127 -26 51 -94 58 -256 26z"/>
<path d="M3893 1530 c-53 -21 -68 -105 -25 -143 50 -45 142 -5 142 62 0 56
-65 101 -117 81z"/>
<path d="M3525 1425 c-34 -35 -34 -83 1 -119 29 -28 59 -33 97 -15 25 11 47
47 47 74 0 73 -93 111 -145 60z"/>
<path d="M3802 1183 c-63 -30 -61 -117 3 -147 30 -15 38 -15 69 -2 27 11 37
23 45 52 11 39 5 59 -26 85 -27 24 -58 28 -91 12z"/>
<path d="M3033 1100 c-48 -19 -58 -95 -18 -135 34 -35 78 -33 115 4 67 66 -8
167 -97 131z"/>
<path d="M3362 1092 c-15 -12 -25 -33 -29 -59 -5 -35 -2 -45 20 -67 42 -42
105 -33 132 18 44 81 -51 163 -123 108z"/>
<path d="M3553 845 c-80 -34 -63 -147 25 -161 26 -4 38 0 62 25 17 16 30 40
30 53 -1 64 -60 107 -117 83z"/>
<path d="M2772 843 c-22 -9 -44 -63 -37 -93 8 -37 34 -60 75 -65 43 -5 90 39
90 85 0 58 -68 97 -128 73z"/>
<path d="M3104 748 c-61 -48 -26 -147 52 -148 48 0 84 34 84 78 -1 77 -77 116
-136 70z"/>
</g>
</svg>
